<svg width="200" height="97" viewBox="0 0 200 97" fill="none" xmlns="http://www.w3.org/2000/svg">
<path d="M10.1265 62.1173C10.8564 64.256 12.3706 66.5781 14.2809 68.4883L26.7466 80.9541C26.6631 81.4698 26.661 81.9636 26.7448 82.4151L17.7386 73.4089C22.7633 81.1996 18.3547 86.4594 23.7395 91.8441L23.7396 91.8442L29.5911 85.9928L30.2892 86.691L24.4378 92.5424C25.5946 93.6992 27.8422 93.3271 29.4581 91.7112L32.3838 88.7855C33.396 89.7978 34.2388 89.7233 34.8773 89.0847L36.7059 87.2562C37.3451 86.6169 37.4182 85.7742 36.4066 84.7627L37.1381 84.0312C38.1503 85.0435 38.9931 84.969 39.6316 84.3304L41.4602 82.5019C42.0994 81.8626 42.1725 81.0199 41.1609 80.0084L44.0867 77.0826C45.7025 75.4668 46.0746 73.2192 44.9178 72.0624L39.0664 77.9138L38.3682 77.2156L44.2196 71.3642L44.2195 71.3641C38.8348 65.9793 33.575 70.3879 25.7843 65.3631L34.7906 74.3694C34.339 74.2856 33.8453 74.2877 33.3296 74.3713L20.8638 61.9055C18.9535 59.9952 16.6314 58.481 14.4927 57.751C12.5618 57.0919 10.9725 57.1349 10.2414 57.866C9.51034 58.5971 9.46736 60.1863 10.1265 62.1173ZM18.7027 62.6702C18.7953 62.7627 18.8456 62.8901 18.8425 63.0241C18.8393 63.1582 18.7831 63.288 18.6861 63.385L15.7604 66.3107C15.6634 66.4077 15.5336 66.4639 15.3995 66.467C15.2655 66.4702 15.1382 66.4199 15.0456 66.3273C13.6532 64.9349 17.3089 61.2763 18.7027 62.6702Z" fill="#E1E1E6"/>
<path d="M43.4571 86.3131C43.9313 86.7863 44.1162 87.5454 44.2742 88.4591C44.624 90.5119 42.8499 92.3246 40.7744 91.9558C39.9875 91.8151 38.8846 91.3988 38.6254 91.1397C38.5699 91.0831 38.4979 91.0454 38.4197 91.032C38.3416 91.0186 38.2611 91.0302 38.1899 91.0651C38.1187 91.1 38.0602 91.1564 38.0229 91.2264C37.9856 91.2964 37.9713 91.3764 37.982 91.455C38.1225 92.6029 38.643 93.6708 39.4607 94.4888C41.493 96.5191 49.0342 96.7108 49.0342 96.7108C49.0342 96.7108 48.8425 89.1664 46.8101 87.1361C45.9927 86.316 44.923 85.7949 43.7733 85.6568C43.4122 85.6248 43.1972 86.0644 43.4571 86.3131V86.3131Z" fill="url(#paint0_linear_193_9)"/>
<path d="M22.6096 45.4353C19.3657 45.4353 16.4589 44.9087 13.8891 43.8555C11.3193 42.8023 9.25497 41.2435 7.69623 39.1792C6.17961 37.115 5.37918 34.6294 5.29492 31.7225H16.7959C16.9644 33.3655 17.5332 34.6294 18.5021 35.5141C19.4711 36.3566 20.7349 36.7779 22.2937 36.7779C23.8945 36.7779 25.1584 36.4198 26.0852 35.7037C27.012 34.9454 27.4754 33.9132 27.4754 32.6072C27.4754 31.5119 27.0963 30.6061 26.338 29.89C25.6218 29.1738 24.716 28.584 23.6207 28.1206C22.5675 27.6572 21.0509 27.1306 19.0708 26.5408C16.2061 25.6561 13.868 24.7714 12.0565 23.8867C10.245 23.002 8.68624 21.696 7.38027 19.9688C6.07429 18.2415 5.42131 15.9877 5.42131 13.2072C5.42131 9.07863 6.91686 5.85582 9.90796 3.53877C12.8991 1.17959 16.7959 0 21.5985 0C26.4854 0 30.4244 1.17959 33.4155 3.53877C36.4066 5.85582 38.0075 9.09969 38.2181 13.2704H26.5275C26.4433 11.838 25.9167 10.7216 24.9477 9.9212C23.9788 9.07863 22.736 8.65735 21.2194 8.65735C19.9134 8.65735 18.8602 9.01544 18.0598 9.73162C17.2593 10.4057 16.8591 11.3957 16.8591 12.7017C16.8591 14.134 17.5332 15.2504 18.8813 16.0508C20.2294 16.8513 22.3358 17.7149 25.2005 18.6417C28.0652 19.6107 30.3823 20.5375 32.1517 21.4222C33.9632 22.3069 35.5219 23.5918 36.8279 25.2769C38.1339 26.9621 38.7869 29.1317 38.7869 31.7857C38.7869 34.3134 38.1339 36.6094 36.8279 38.6737C35.564 40.738 33.7104 42.381 31.267 43.6027C28.8235 44.8244 25.9377 45.4353 22.6096 45.4353Z" fill="url(#paint1_linear_193_9)"/>
<path d="M56.2427 14.7238C57.296 13.0808 58.7494 11.7538 60.603 10.7427C62.4567 9.73161 64.6263 9.22608 67.1118 9.22608C70.0187 9.22608 72.6517 9.96332 75.0109 11.4378C77.37 12.9123 79.2237 15.0187 80.5718 17.757C81.962 20.4954 82.6571 23.6761 82.6571 27.2991C82.6571 30.9221 81.962 34.1239 80.5718 36.9043C79.2237 39.6426 77.37 41.7701 75.0109 43.2867C72.6517 44.7612 70.0187 45.4985 67.1118 45.4985C64.6684 45.4985 62.4988 44.9929 60.603 43.9818C58.7494 42.9708 57.296 41.6648 56.2427 40.0639V61.8021H45.4369V9.73162H56.2427V14.7238ZM71.6617 27.2991C71.6617 24.6029 70.9034 22.4965 69.3867 20.9798C67.9123 19.4211 66.0797 18.6417 63.889 18.6417C61.7405 18.6417 59.9079 19.4211 58.3913 20.9798C56.9168 22.5386 56.1796 24.6661 56.1796 27.3623C56.1796 30.0585 56.9168 32.186 58.3913 33.7447C59.9079 35.3034 61.7405 36.0828 63.889 36.0828C66.0376 36.0828 67.8701 35.3034 69.3867 33.7447C70.9034 32.1438 71.6617 29.9953 71.6617 27.2991Z" fill="url(#paint2_linear_193_9)"/>
<path d="M126.352 27.3623C126.352 23.6971 127.089 20.4954 128.563 17.757C130.08 15.0187 132.165 12.9123 134.819 11.4378C137.516 9.96332 140.591 9.22608 144.046 9.22608C148.469 9.22608 152.155 10.3846 155.104 12.7017C158.095 15.0187 160.054 18.2836 160.981 22.4965H149.48C148.511 19.8003 146.636 18.4522 143.856 18.4522C141.876 18.4522 140.296 19.2315 139.117 20.7903C137.937 22.3069 137.347 24.4976 137.347 27.3623C137.347 30.227 137.937 32.4387 139.117 33.9975C140.296 35.5141 141.876 36.2724 143.856 36.2724C146.636 36.2724 148.511 34.9243 149.48 32.2281H160.981C160.054 36.3566 158.095 39.6005 155.104 41.9597C152.113 44.3189 148.427 45.4985 144.046 45.4985C140.591 45.4985 137.516 44.7612 134.819 43.2867C132.165 41.8122 130.08 39.7058 128.563 36.9675C127.089 34.2292 126.352 31.0274 126.352 27.3623Z" fill="url(#paint3_linear_193_9)"/>
<path d="M200 26.7935C200 27.8046 199.937 28.8578 199.811 29.9532H175.355C175.524 32.1438 176.219 33.829 177.441 35.0085C178.705 36.146 180.242 36.7147 182.054 36.7147C184.75 36.7147 186.625 35.5773 187.678 33.3024H199.179C198.589 35.6194 197.515 37.7048 195.956 39.5584C194.439 41.412 192.523 42.8655 190.206 43.9187C187.888 44.9719 185.298 45.4985 182.433 45.4985C178.978 45.4985 175.903 44.7612 173.207 43.2867C170.511 41.8122 168.404 39.7058 166.888 36.9675C165.371 34.2292 164.613 31.0274 164.613 27.3623C164.613 23.6971 165.35 20.4954 166.824 17.757C168.341 15.0187 170.447 12.9123 173.144 11.4378C175.84 9.96332 178.936 9.22608 182.433 9.22608C185.845 9.22608 188.878 9.94226 191.533 11.3746C194.187 12.807 196.251 14.8502 197.725 17.5043C199.242 20.1583 200 23.2548 200 26.7935ZM188.942 23.9499C188.942 22.0962 188.31 20.6218 187.046 19.5264C185.782 18.4311 184.202 17.8834 182.306 17.8834C180.495 17.8834 178.957 18.41 177.693 19.4632C176.472 20.5164 175.713 22.012 175.419 23.9499H188.942Z" fill="url(#paint4_linear_193_9)"/>
<path d="M85.1601 59.1165V65.6095H71.6054V72.6239H81.7478V78.9273H71.6054V92.3873H63.501V59.1165H85.1601Z" fill="#E1E1E6"/>
<path d="M101.458 92.7664C98.867 92.7664 96.5288 92.2135 94.4435 91.1076C92.3897 90.0018 90.7625 88.422 89.5619 86.3682C88.3928 84.3145 87.8083 81.9132 87.8083 79.1643C87.8083 76.447 88.4086 74.0615 89.6093 72.0078C90.8099 69.9224 92.4529 68.3268 94.5383 67.2209C96.6236 66.1151 98.9617 65.5621 101.553 65.5621C104.144 65.5621 106.482 66.1151 108.567 67.2209C110.652 68.3268 112.295 69.9224 113.496 72.0078C114.697 74.0615 115.297 76.447 115.297 79.1643C115.297 81.8816 114.681 84.2829 113.449 86.3682C112.248 88.422 110.589 90.0018 108.472 91.1076C106.387 92.2135 104.049 92.7664 101.458 92.7664ZM101.458 85.7521C103.006 85.7521 104.317 85.1834 105.392 84.0459C106.497 82.9084 107.05 81.2812 107.05 79.1643C107.05 77.0474 106.513 75.4202 105.439 74.2827C104.396 73.1452 103.101 72.5765 101.553 72.5765C99.9728 72.5765 98.6616 73.1452 97.6189 74.2827C96.5762 75.3886 96.0549 77.0158 96.0549 79.1643C96.0549 81.2812 96.5604 82.9084 97.5715 84.0459C98.6142 85.1834 99.9096 85.7521 101.458 85.7521Z" fill="#E1E1E6"/>
<path d="M127.701 70.349C128.649 68.8955 129.834 67.7581 131.255 66.9366C132.677 66.0835 134.257 65.6569 135.995 65.6569V74.2353H133.767C131.745 74.2353 130.229 74.6776 129.218 75.5623C128.206 76.4154 127.701 77.9321 127.701 80.1122V92.3873H119.597V65.9413H127.701V70.349Z" fill="#E1E1E6"/>
<path d="M160.58 86.5104H148.163L146.172 92.3873H137.689L149.727 59.1165H159.111L171.149 92.3873H162.57L160.58 86.5104ZM158.495 80.2544L154.371 68.074L150.295 80.2544H158.495Z" fill="#E1E1E6"/>
<path d="M182.917 57.3156V92.3873H174.813V57.3156H182.917Z" fill="#E1E1E6"/>
<path d="M196.895 57.3156V92.3873H188.79V57.3156H196.895Z" fill="#E1E1E6"/>
<path d="M94.0401 24.2581L94.9922 24.2581C96.7342 28.3259 100.698 31.1697 105.324 31.1697C109.951 31.1697 113.915 28.3259 115.657 24.2581L116.609 24.2581C117.229 24.2581 117.737 23.7397 117.737 23.1061L117.737 16.1945C117.737 15.5609 117.229 15.0425 116.609 15.0425L115.657 15.0425C113.915 10.9747 109.951 8.13086 105.324 8.13086C100.698 8.13086 96.7342 10.9747 94.9922 15.0425L94.0401 15.0425C93.4195 15.0425 92.9117 15.5609 92.9117 16.1945L92.9117 23.1061C92.9117 23.7397 93.4195 24.2581 94.0401 24.2581ZM96.8612 17.9224C96.8612 16.3313 98.3775 15.0425 100.246 15.0425L110.402 15.0425C112.271 15.0425 113.788 16.3313 113.788 17.9224L113.788 19.6503C113.788 23.4661 110.755 26.562 107.017 26.562L103.632 26.562C99.8939 26.562 96.8612 23.4661 96.8612 19.6503L96.8612 17.9224ZM101.939 23.1061L102.785 20.5142L105.324 19.6503L102.785 18.7863L101.939 16.1945L101.093 18.7863L98.5538 19.6503L101.093 20.5142L101.939 23.1061ZM112.631 31.2705C110.522 32.6601 108.019 33.4736 105.324 33.4736C102.63 33.4736 100.127 32.6601 98.0178 31.2705C93.2573 31.7817 89.5264 35.8495 89.5264 40.846L89.5264 41.5372C89.5264 43.4451 91.0427 44.993 92.9117 44.993L98.5538 44.993L98.5538 40.3853C98.5538 39.1109 99.5624 38.0814 100.811 38.0814L109.838 38.0814C111.087 38.0814 112.095 39.1109 112.095 40.3853L112.095 44.993L117.737 44.993C119.606 44.993 121.123 43.4451 121.123 41.5372L121.123 40.846C121.123 35.8495 117.392 31.7817 112.631 31.2705ZM108.71 40.3853C108.089 40.3853 107.581 40.9036 107.581 41.5372C107.581 42.1708 108.089 42.6892 108.71 42.6892C109.33 42.6892 109.838 42.1708 109.838 41.5372C109.838 40.9036 109.33 40.3853 108.71 40.3853ZM101.939 40.3853C101.319 40.3853 100.811 40.9036 100.811 41.5372L100.811 44.993L103.068 44.993L103.068 41.5372C103.068 40.9036 102.56 40.3853 101.939 40.3853Z" fill="#E1E1E6"/>
<defs>
<linearGradient id="paint0_linear_193_9" x1="40.9612" y1="88.5862" x2="49.3394" y2="96.9644" gradientUnits="userSpaceOnUse">
<stop stop-color="#E1E1E6"/>
<stop offset="1" stop-color="#111013"/>
</linearGradient>
<linearGradient id="paint1_linear_193_9" x1="5.29492" y1="0" x2="216.947" y2="67.6165" gradientUnits="userSpaceOnUse">
<stop stop-color="#944CFF"/>
<stop offset="1" stop-color="#6E2BD9"/>
</linearGradient>
<linearGradient id="paint2_linear_193_9" x1="5.29492" y1="0" x2="216.947" y2="67.6165" gradientUnits="userSpaceOnUse">
<stop stop-color="#944CFF"/>
<stop offset="1" stop-color="#6E2BD9"/>
</linearGradient>
<linearGradient id="paint3_linear_193_9" x1="5.29492" y1="0" x2="216.947" y2="67.6165" gradientUnits="userSpaceOnUse">
<stop stop-color="#944CFF"/>
<stop offset="1" stop-color="#6E2BD9"/>
</linearGradient>
<linearGradient id="paint4_linear_193_9" x1="5.29492" y1="0" x2="216.947" y2="67.6165" gradientUnits="userSpaceOnUse">
<stop stop-color="#944CFF"/>
<stop offset="1" stop-color="#6E2BD9"/>
</linearGradient>
</defs>
</svg>
